<?xml version="1.0" encoding="UTF-8"?>
<!DOCTYPE svg PUBLIC "-//W3C//DTD SVG 1.1//EN" "http://www.w3.org/Graphics/SVG/1.1/DTD/svg11.dtd">
<svg xmlns="http://www.w3.org/2000/svg" version="1.1" width="779px" height="611px" style="shape-rendering:geometricPrecision; text-rendering:geometricPrecision; image-rendering:optimizeQuality; fill-rule:evenodd; clip-rule:evenodd" xmlns:xlink="http://www.w3.org/1999/xlink">
<g><path style="opacity:0.978" fill="#754c0b" d="M 216.5,28.5 C 212.683,29.8405 209.017,31.6738 205.5,34C 210.427,33.153 215.427,32.8197 220.5,33C 212.114,33.6816 204.614,36.5149 198,41.5C 194.776,46.3968 193.442,51.7301 194,57.5C 197.011,53.9305 200.178,51.2638 203.5,49.5C 201.45,52.653 199.784,55.9864 198.5,59.5C 196.873,61.6298 195.04,63.6298 193,65.5C 193.291,70.144 193.291,74.8107 193,79.5C 189.391,81.4375 186.891,84.2708 185.5,88C 187.435,95.7775 189.102,103.611 190.5,111.5C 190.183,114.655 188.517,115.822 185.5,115C 180.397,108.742 174.063,106.742 166.5,109C 163.684,111.132 162.351,113.965 162.5,117.5C 163.286,128.733 169.286,133.567 180.5,132C 182.286,131.215 183.786,130.049 185,128.5C 187.024,132.903 188.858,137.403 190.5,142C 189.944,142.383 189.611,142.883 189.5,143.5C 184.916,144.812 180.249,145.812 175.5,146.5C 173.074,146.596 170.907,145.93 169,144.5C 167.375,140.668 166.375,136.668 166,132.5C 151.042,116.083 141.542,96.9168 137.5,75C 137.813,61.707 143.146,51.0403 153.5,43C 168.155,38.3354 182.822,33.6688 197.5,29C 203.825,28.5005 210.158,28.3338 216.5,28.5 Z"/></g>
<g><path style="opacity:0.977" fill="#895811" d="M 216.5,28.5 C 233.71,26.2087 240.877,33.542 238,50.5C 237.246,53.6844 235.746,56.3511 233.5,58.5C 227.334,54.3086 220.668,53.4753 213.5,56C 211.376,57.1217 209.543,58.6217 208,60.5C 205.385,64.7829 202.385,68.7829 199,72.5C 198.674,67.9279 198.508,63.5945 198.5,59.5C 199.784,55.9864 201.45,52.653 203.5,49.5C 200.178,51.2638 197.011,53.9305 194,57.5C 193.442,51.7301 194.776,46.3968 198,41.5C 204.614,36.5149 212.114,33.6816 220.5,33C 215.427,32.8197 210.427,33.153 205.5,34C 209.017,31.6738 212.683,29.8405 216.5,28.5 Z"/></g>
<g><path style="opacity:0.985" fill="#f2caae" d="M 233.5,58.5 C 235.929,64.3667 238.095,70.3667 240,76.5C 240.799,81.0868 240.632,85.5868 239.5,90C 241.943,94.7836 245.776,97.6169 251,98.5C 257.002,96.8553 259.669,99.1886 259,105.5C 255.922,108.917 252.089,110.917 247.5,111.5C 249.073,125.175 250.739,138.842 252.5,152.5C 252.152,154.697 251.152,156.53 249.5,158C 246.333,158.167 243.167,158.333 240,158.5C 231.805,157.921 223.639,157.421 215.5,157C 208.459,158.352 202.459,161.519 197.5,166.5C 193.452,162.766 189.619,158.766 186,154.5C 185.209,153.255 184.709,151.922 184.5,150.5C 186.89,148.733 188.557,146.4 189.5,143.5C 189.611,142.883 189.944,142.383 190.5,142C 188.858,137.403 187.024,132.903 185,128.5C 183.786,130.049 182.286,131.215 180.5,132C 169.286,133.567 163.286,128.733 162.5,117.5C 162.351,113.965 163.684,111.132 166.5,109C 174.063,106.742 180.397,108.742 185.5,115C 188.517,115.822 190.183,114.655 190.5,111.5C 189.102,103.611 187.435,95.7775 185.5,88C 186.891,84.2708 189.391,81.4375 193,79.5C 193.291,74.8107 193.291,70.144 193,65.5C 195.04,63.6298 196.873,61.6298 198.5,59.5C 198.508,63.5945 198.674,67.9279 199,72.5C 202.385,68.7829 205.385,64.7829 208,60.5C 209.543,58.6217 211.376,57.1217 213.5,56C 220.668,53.4753 227.334,54.3086 233.5,58.5 Z"/></g>
<g><path style="opacity:0.982" fill="#35180f" d="M 579.5,184.5 C 573.197,185.427 566.863,186.094 560.5,186.5C 559.833,186.5 559.167,186.5 558.5,186.5C 559.038,184.883 559.371,183.216 559.5,181.5C 556.357,181.969 554.023,183.636 552.5,186.5C 550.297,186.604 548.297,187.27 546.5,188.5C 544.265,188.205 542.265,188.539 540.5,189.5C 533.355,188.92 526.355,187.587 519.5,185.5C 518.479,184.998 518.312,184.332 519,183.5C 521.454,181.559 523.287,179.225 524.5,176.5C 526.074,176.063 527.241,175.063 528,173.5C 531.708,167.249 535.541,161.083 539.5,155C 550.998,153.854 556.165,147.688 555,136.5C 548.737,131.227 542.403,131.227 536,136.5C 523.562,131.728 514.729,123.228 509.5,111C 505.916,109.927 502.25,109.26 498.5,109C 501.353,107.192 504.353,107.025 507.5,108.5C 507.833,108 508.167,107.5 508.5,107C 507.555,103.699 506.389,100.533 505,97.5C 501.63,100.535 498.63,103.868 496,107.5C 493.97,114.432 491.47,121.099 488.5,127.5C 486.728,122.947 485.228,118.281 484,113.5C 482.693,107.759 484.027,102.759 488,98.5C 492.626,93.6943 497.626,89.3609 503,85.5C 502.312,82.3159 502.479,79.1492 503.5,76C 519.825,69.8144 536.492,68.481 553.5,72C 573.307,78.4739 586.474,91.6406 593,111.5C 594.802,116.375 596.135,121.375 597,126.5C 607.737,139.592 610.737,154.259 606,170.5C 602.133,174.766 597.466,177.766 592,179.5C 591.055,179.095 590.388,178.428 590,177.5C 586.692,180.229 583.192,182.562 579.5,184.5 Z"/></g>
<g><path style="opacity:1" fill="#64400e" d="M 218.5,70.5 C 221.518,70.3354 224.518,70.502 227.5,71C 228.357,71.6891 229.023,72.5224 229.5,73.5C 220.932,73.8942 214.099,77.5608 209,84.5C 208.062,81.1195 208.729,78.1195 211,75.5C 213.479,73.6859 215.979,72.0192 218.5,70.5 Z"/></g>
<g><path style="opacity:1" fill="#221e1a" d="M 223.5,88.5 C 227.549,87.8838 230.882,89.0505 233.5,92C 229.908,91.4979 226.241,91.4979 222.5,92C 220.667,93.1667 219.167,94.6667 218,96.5C 218.386,92.9301 220.219,90.2635 223.5,88.5 Z"/></g>
<g><path style="opacity:0.929" fill="#e1e0df" d="M 343.5,159.5 C 341.535,158.504 339.202,158.504 336.5,159.5C 336.074,157.715 334.908,156.715 333,156.5C 327.528,157.546 322.028,157.712 316.5,157C 313.966,156.484 311.8,155.317 310,153.5C 304.43,138.789 299.263,123.956 294.5,109C 303.469,104.516 312.469,100.016 321.5,95.5C 330.567,107.955 339.4,120.621 348,133.5C 348.667,136.5 348.667,139.5 348,142.5C 345.873,146.289 343.373,149.789 340.5,153C 341.377,155.253 342.377,157.419 343.5,159.5 Z"/></g>
<g><path style="opacity:0.99" fill="#f8d4be" d="M 524.5,176.5 C 523.5,176.5 522.5,176.5 521.5,176.5C 525.404,173.093 526.57,169.093 525,164.5C 524.586,164.043 524.086,163.709 523.5,163.5C 521.957,166.086 520.291,168.586 518.5,171C 517.241,171.982 515.908,172.315 514.5,172C 518.292,166.314 517.625,161.147 512.5,156.5C 510.803,157.364 509.637,158.697 509,160.5C 508.667,163.5 508.333,166.5 508,169.5C 507,170.167 506,170.833 505,171.5C 504.612,167.781 503.945,164.114 503,160.5C 501.759,158.579 500.259,158.246 498.5,159.5C 497.477,163.113 496.644,166.779 496,170.5C 493.904,172.266 491.571,173.599 489,174.5C 488.51,175.793 488.343,177.127 488.5,178.5C 487.566,177.432 487.232,176.099 487.5,174.5C 486.178,174.67 485.011,174.337 484,173.5C 482.536,169.141 482.37,164.808 483.5,160.5C 486.666,157.225 488.332,153.225 488.5,148.5C 485.505,148.706 482.838,148.04 480.5,146.5C 481.028,145.279 481.695,144.113 482.5,143C 476.93,142.11 474.43,138.943 475,133.5C 478.209,131.785 481.709,130.618 485.5,130C 486.942,129.623 487.942,128.79 488.5,127.5C 491.47,121.099 493.97,114.432 496,107.5C 498.63,103.868 501.63,100.535 505,97.5C 506.389,100.533 507.555,103.699 508.5,107C 508.167,107.5 507.833,108 507.5,108.5C 504.353,107.025 501.353,107.192 498.5,109C 502.25,109.26 505.916,109.927 509.5,111C 514.729,123.228 523.562,131.728 536,136.5C 542.403,131.227 548.737,131.227 555,136.5C 556.165,147.688 550.998,153.854 539.5,155C 535.541,161.083 531.708,167.249 528,173.5C 527.241,175.063 526.074,176.063 524.5,176.5 Z"/></g>
<g><path style="opacity:1" fill="#c62b0d" d="M 322.5,117.5 C 325.187,117.336 327.854,117.503 330.5,118C 334.729,123.901 338.563,130.068 342,136.5C 342.296,146.375 337.462,151.708 327.5,152.5C 320.963,152.926 315.796,150.592 312,145.5C 309.526,139.243 307.359,132.91 305.5,126.5C 308.85,126.665 312.183,126.498 315.5,126C 317.743,122.964 320.076,120.131 322.5,117.5 Z"/></g>
<g><path style="opacity:1" fill="#37332f" d="M 499.5,120.5 C 507.113,119.614 510.613,122.947 510,130.5C 509.55,128.481 508.717,126.648 507.5,125C 503.425,124.482 499.425,124.482 495.5,125C 497.041,123.629 498.375,122.129 499.5,120.5 Z"/></g>
<g><path style="opacity:0.934" fill="#e1dfde" d="M 422.5,192.5 C 420.173,192.247 418.173,192.914 416.5,194.5C 415.893,194.376 415.56,194.043 415.5,193.5C 416.008,191.135 416.675,188.801 417.5,186.5C 411.334,183.839 406.167,179.839 402,174.5C 399.874,167.628 400.54,160.962 404,154.5C 407.952,143.97 412.285,133.637 417,123.5C 426.349,126.379 435.849,128.712 445.5,130.5C 444.511,146.543 443.011,162.543 441,178.5C 440.215,180.286 439.049,181.786 437.5,183C 432.845,184.606 428.178,186.106 423.5,187.5C 422.691,189.071 422.357,190.738 422.5,192.5 Z"/></g>
<g><path style="opacity:0.944" fill="#541a19" d="M 737.5,156.5 C 728.733,155.562 720.4,156.896 712.5,160.5C 710.678,155.935 711.678,152.101 715.5,149C 711.776,142.851 711.943,136.684 716,130.5C 724.955,125.72 732.955,127.053 740,134.5C 741.874,141.011 740.041,146.178 734.5,150C 736.451,151.734 737.451,153.901 737.5,156.5 Z"/></g>
<g><path style="opacity:1" fill="#7e3e1d" d="M 223.5,128.5 C 231.761,130.488 240.095,132.155 248.5,133.5C 248.562,142.161 244.229,145.661 235.5,144C 228.974,140.777 224.974,135.611 223.5,128.5 Z"/></g>
<g><path style="opacity:0.941" fill="#541a19" d="M 66.5,168.5 C 63.0534,168.186 59.7201,167.352 56.5,166C 51.4477,165.274 46.4477,165.441 41.5,166.5C 40.8554,163.453 41.8554,161.287 44.5,160C 36.9862,154.831 35.6528,148.498 40.5,141C 47.1876,136.12 54.1876,135.453 61.5,139C 66.2527,145.154 66.5861,151.487 62.5,158C 64,159.5 65.5,161 67,162.5C 67.6776,164.598 67.5109,166.598 66.5,168.5 Z"/></g>
<g><path style="opacity:1" fill="#c62a0c" d="M 412.5,145.5 C 413.873,145.343 415.207,145.51 416.5,146C 418.102,148.111 420.102,149.611 422.5,150.5C 427.962,147.229 432.795,147.896 437,152.5C 437.566,160.973 436.733,169.306 434.5,177.5C 429.466,181.256 423.8,182.422 417.5,181C 409.035,176.568 405.535,169.735 407,160.5C 408.843,155.484 410.677,150.484 412.5,145.5 Z"/></g>
<g><path style="opacity:0.939" fill="#80c9e9" d="M 184.5,150.5 C 184.709,151.922 185.209,153.255 186,154.5C 189.619,158.766 193.452,162.766 197.5,166.5C 200.098,170.438 203.098,174.105 206.5,177.5C 201.879,180.785 197.546,184.451 193.5,188.5C 193.5,187.833 193.167,187.5 192.5,187.5C 192.167,186.167 191.833,186.167 191.5,187.5C 192.513,191.813 190.846,194.146 186.5,194.5C 189.922,184.326 188.756,174.659 183,165.5C 179.612,160.631 176.112,155.964 172.5,151.5C 175.378,150.63 178.045,149.297 180.5,147.5C 181.852,148.524 183.185,149.524 184.5,150.5 Z"/></g>
<g><path style="opacity:0.955" fill="#f2caae" d="M 360.5,189.5 C 356.922,189.549 353.589,190.215 350.5,191.5C 347.694,196.647 343.694,200.313 338.5,202.5C 337.078,202.291 335.745,201.791 334.5,201C 329.06,197.291 324.06,193.125 319.5,188.5C 319.205,181.774 319.538,175.108 320.5,168.5C 325.564,164.969 330.897,161.969 336.5,159.5C 339.202,158.504 341.535,158.504 343.5,159.5C 348.691,156.494 354.024,153.661 359.5,151C 364.552,150.895 366.385,153.395 365,158.5C 360.586,161.624 356.086,164.624 351.5,167.5C 354.333,167.582 357.333,167.748 360.5,168C 363.672,172.845 365.672,178.178 366.5,184C 365.477,186.995 363.477,188.828 360.5,189.5 Z"/></g>
<g><path style="opacity:0.965" fill="#ca3f11" d="M 480.5,146.5 C 482.838,148.04 485.505,148.706 488.5,148.5C 488.332,153.225 486.666,157.225 483.5,160.5C 482.178,160.67 481.011,160.337 480,159.5C 479.83,157.285 479.163,155.285 478,153.5C 477.333,151.5 477.333,149.5 478,147.5C 478.671,146.748 479.504,146.414 480.5,146.5 Z"/></g>
<g><path style="opacity:0.995" fill="#442c12" d="M 157.5,153.5 C 165.89,157.037 173.39,162.037 180,168.5C 183.121,176.771 183.288,185.104 180.5,193.5C 178.667,186.5 176.834,179.5 175,172.5C 172.774,168.132 169.274,165.298 164.5,164C 150.871,159.883 143.038,164.717 141,178.5C 139.835,189.702 140.835,200.702 144,211.5C 147.413,221.906 150.913,232.239 154.5,242.5C 145.62,247.867 137.12,253.867 129,260.5C 124.891,269.025 126.224,276.692 133,283.5C 146.462,297.138 160.628,309.805 175.5,321.5C 180.014,327.178 185.347,332.011 191.5,336C 189.753,336.352 188.086,336.852 186.5,337.5C 183.088,338.075 180.088,339.408 177.5,341.5C 173.816,343.528 170.15,345.528 166.5,347.5C 167.356,343.429 168.523,339.429 170,335.5C 170.667,333.833 170.667,332.167 170,330.5C 164.476,324.611 159.31,318.444 154.5,312C 150.955,311.429 147.622,312.096 144.5,314C 137.663,318.253 130.663,322.253 123.5,326C 120.4,327.668 119.9,329.835 122,332.5C 127.793,339.961 133.959,347.128 140.5,354C 149.021,353.288 157.354,351.455 165.5,348.5C 155.545,355.786 145.879,363.453 136.5,371.5C 120.167,372.116 103.833,371.783 87.5,370.5C 87.7373,369.209 87.404,368.209 86.5,367.5C 86.5,367.167 86.5,366.833 86.5,366.5C 86.6716,365.508 86.3382,364.842 85.5,364.5C 83.2483,347.487 80.915,330.487 78.5,313.5C 82.8114,306.068 85.6447,298.068 87,289.5C 87.5629,272.159 87.3962,254.826 86.5,237.5C 90.9561,221.253 98.1228,206.253 108,192.5C 122.256,176.479 138.756,163.479 157.5,153.5 Z"/></g>
<g><path style="opacity:0.974" fill="#fef0d5" d="M 737.5,156.5 C 739.89,158.376 740.89,160.876 740.5,164C 735.251,212.572 729.418,261.072 723,309.5C 722.794,311.936 721.627,313.602 719.5,314.5C 714.044,312.393 709.377,309.059 705.5,304.5C 700.298,297.411 697.131,289.411 696,280.5C 692.776,245.522 694.776,210.855 702,176.5C 703.115,172.271 704.781,168.271 707,164.5C 708.432,162.561 710.265,161.228 712.5,160.5C 720.4,156.896 728.733,155.562 737.5,156.5 Z"/></g>
<g><path style="opacity:0.975" fill="#fbd8c2" d="M 521.5,176.5 C 516.823,180.168 511.49,182.168 505.5,182.5C 505.421,200.575 506.421,218.575 508.5,236.5C 508.032,243.667 509.532,250.333 513,256.5C 524.986,241.197 533.819,224.197 539.5,205.5C 539.878,201.322 540.878,197.322 542.5,193.5C 543.803,191.858 545.136,190.191 546.5,188.5C 548.297,187.27 550.297,186.604 552.5,186.5C 554.5,186.5 556.5,186.5 558.5,186.5C 559.167,186.5 559.833,186.5 560.5,186.5C 564.292,191.882 565.459,197.882 564,204.5C 561.049,214.395 557.549,224.061 553.5,233.5C 544.505,251.824 532.172,267.491 516.5,280.5C 511.105,280.733 505.772,280.4 500.5,279.5C 499.167,277.5 497.5,275.833 495.5,274.5C 493.232,266.795 491.232,259.128 489.5,251.5C 488.633,227.129 488.299,202.796 488.5,178.5C 488.343,177.127 488.51,175.793 489,174.5C 491.571,173.599 493.904,172.266 496,170.5C 496.644,166.779 497.477,163.113 498.5,159.5C 500.259,158.246 501.759,158.579 503,160.5C 503.945,164.114 504.612,167.781 505,171.5C 506,170.833 507,170.167 508,169.5C 508.333,166.5 508.667,163.5 509,160.5C 509.637,158.697 510.803,157.364 512.5,156.5C 517.625,161.147 518.292,166.314 514.5,172C 515.908,172.315 517.241,171.982 518.5,171C 520.291,168.586 521.957,166.086 523.5,163.5C 524.086,163.709 524.586,164.043 525,164.5C 526.57,169.093 525.404,173.093 521.5,176.5 Z"/></g>
<g><path style="opacity:0.876" fill="#dcc013" d="M 388.5,182.5 C 387.833,182.5 387.167,182.5 386.5,182.5C 383.468,182.822 381.801,181.489 381.5,178.5C 383.032,174.432 384.865,170.432 387,166.5C 387.333,164.167 387.667,161.833 388,159.5C 394.297,165.378 396.297,172.378 394,180.5C 392.416,181.861 390.582,182.528 388.5,182.5 Z"/></g>
<g><path style="opacity:0.988" fill="#4f3216" d="M 172.5,151.5 C 176.112,155.964 179.612,160.631 183,165.5C 188.756,174.659 189.922,184.326 186.5,194.5C 185.477,199.071 184.144,203.571 182.5,208C 184.185,216.594 186.185,225.094 188.5,233.5C 190.308,243.257 193.308,252.591 197.5,261.5C 202.988,262.467 208.321,261.801 213.5,259.5C 224.018,256.566 234.018,252.566 243.5,247.5C 252.788,244.106 261.621,239.773 270,234.5C 270.708,235.381 271.542,236.047 272.5,236.5C 278.835,243.197 284.168,250.531 288.5,258.5C 287.989,260.195 287.322,261.861 286.5,263.5C 273.255,269.624 260.255,275.957 247.5,282.5C 233.046,288.152 218.38,293.319 203.5,298C 197.903,299.456 192.237,299.789 186.5,299C 181.618,295.786 177.785,291.619 175,286.5C 169.867,277.231 165.033,267.898 160.5,258.5C 159.076,252.888 157.076,247.555 154.5,242.5C 150.913,232.239 147.413,221.906 144,211.5C 140.835,200.702 139.835,189.702 141,178.5C 143.038,164.717 150.871,159.883 164.5,164C 169.274,165.298 172.774,168.132 175,172.5C 176.834,179.5 178.667,186.5 180.5,193.5C 183.288,185.104 183.121,176.771 180,168.5C 173.39,162.037 165.89,157.037 157.5,153.5C 162.259,151.284 167.259,150.617 172.5,151.5 Z"/></g>
<g><path style="opacity:0.979" fill="#fef0d5" d="M 66.5,168.5 C 68.3545,169.69 70.1879,171.023 72,172.5C 77.353,183.241 80.853,194.574 82.5,206.5C 84.2443,216.788 85.5776,227.121 86.5,237.5C 87.3962,254.826 87.5629,272.159 87,289.5C 85.6447,298.068 82.8114,306.068 78.5,313.5C 76.0365,315.461 73.7032,317.628 71.5,320C 69.3496,321.411 67.0163,322.245 64.5,322.5C 63.2502,322.423 62.4169,321.756 62,320.5C 52.8364,270.352 45.1697,220.019 39,169.5C 39.6979,168.309 40.5313,167.309 41.5,166.5C 46.4477,165.441 51.4477,165.274 56.5,166C 59.7201,167.352 63.0534,168.186 66.5,168.5 Z"/></g>
<g><path style="opacity:1" fill="#8ecad6" d="M 558.5,186.5 C 556.5,186.5 554.5,186.5 552.5,186.5C 554.023,183.636 556.357,181.969 559.5,181.5C 559.371,183.216 559.038,184.883 558.5,186.5 Z"/></g>
<g><path style="opacity:0.875" fill="#7b294f" d="M 386.5,182.5 C 387.167,182.5 387.833,182.5 388.5,182.5C 388.5,183.167 388.5,183.833 388.5,184.5C 387.833,185.833 387.167,185.833 386.5,184.5C 386.5,183.833 386.5,183.167 386.5,182.5 Z"/></g>
<g><path style="opacity:0.921" fill="#ecddb3" d="M 386.5,184.5 C 387.167,185.833 387.833,185.833 388.5,184.5C 392.225,185.261 394.059,187.594 394,191.5C 394.254,205.834 394.087,220.167 393.5,234.5C 393.5,235.167 393.5,235.833 393.5,236.5C 390.167,236.5 386.833,236.5 383.5,236.5C 384.569,228.535 384.736,220.535 384,212.5C 381.818,203.938 380.818,195.271 381,186.5C 382.815,185.756 384.648,185.089 386.5,184.5 Z"/></g>
<g><path style="opacity:0.982" fill="#88d7e9" d="M 579.5,184.5 C 592.26,192.075 603.76,201.408 614,212.5C 629.402,230.303 642.569,249.636 653.5,270.5C 639.882,276.975 626.549,283.975 613.5,291.5C 612.833,291.5 612.167,291.5 611.5,291.5C 601.84,285.353 593.173,277.853 585.5,269C 581.066,269.801 576.566,270.634 572,271.5C 567.997,271.724 564.664,270.39 562,267.5C 561.508,255.528 558.675,244.195 553.5,233.5C 557.549,224.061 561.049,214.395 564,204.5C 565.459,197.882 564.292,191.882 560.5,186.5C 566.863,186.094 573.197,185.427 579.5,184.5 Z"/></g>
<g><path style="opacity:0.968" fill="#3a240f" d="M 191.5,187.5 C 191.833,187.5 192.167,187.5 192.5,187.5C 193.167,187.5 193.5,187.833 193.5,188.5C 196.808,195.11 200.642,201.444 205,207.5C 210.284,215.119 215.951,222.452 222,229.5C 228.747,236.088 235.914,242.088 243.5,247.5C 234.018,252.566 224.018,256.566 213.5,259.5C 205.139,250.807 196.806,242.14 188.5,233.5C 186.185,225.094 184.185,216.594 182.5,208C 184.144,203.571 185.477,199.071 186.5,194.5C 190.846,194.146 192.513,191.813 191.5,187.5 Z"/></g>
<g><path style="opacity:0.954" fill="#3b2510" d="M 319.5,188.5 C 324.06,193.125 329.06,197.291 334.5,201C 335.745,201.791 337.078,202.291 338.5,202.5C 339.141,203.482 339.807,204.482 340.5,205.5C 336.487,213.527 332.487,221.527 328.5,229.5C 321.137,229.586 313.804,229.753 306.5,230C 312.755,225.622 318.922,221.122 325,216.5C 325.978,213.331 325.478,210.497 323.5,208C 322.167,207.333 320.833,207.333 319.5,208C 313.779,211.191 308.112,214.358 302.5,217.5C 307.941,208.283 312.607,198.617 316.5,188.5C 317.425,187.438 318.425,187.438 319.5,188.5 Z"/></g>
<g><path style="opacity:0.901" fill="#e2e1e1" d="M 360.5,189.5 C 363.748,191.239 367.414,192.406 371.5,193C 373.116,193.615 374.449,194.615 375.5,196C 368.298,204.101 359.298,208.768 348.5,210C 347.941,209.275 347.608,208.442 347.5,207.5C 348.691,202.953 350.024,198.453 351.5,194C 351.472,192.93 351.139,192.097 350.5,191.5C 353.589,190.215 356.922,189.549 360.5,189.5 Z"/></g>
<g><path style="opacity:0.787" fill="#87bbc5" d="M 540.5,189.5 C 542.265,188.539 544.265,188.205 546.5,188.5C 545.136,190.191 543.803,191.858 542.5,193.5C 542.771,191.62 542.104,190.287 540.5,189.5 Z"/></g>
<g><path style="opacity:0.949" fill="#eec1a8" d="M 415.5,193.5 C 415.56,194.043 415.893,194.376 416.5,194.5C 418.173,192.914 420.173,192.247 422.5,192.5C 431.619,191.13 436.286,194.963 436.5,204C 436.087,207.196 435.92,210.362 436,213.5C 442.537,227.69 451.037,240.524 461.5,252C 470.913,260.158 480.246,259.992 489.5,251.5C 491.232,259.128 493.232,266.795 495.5,274.5C 491.845,276.377 488.178,278.043 484.5,279.5C 478.833,280.833 473.167,280.833 467.5,279.5C 459.943,274.782 453.443,268.782 448,261.5C 439.333,248.837 431.166,235.837 423.5,222.5C 420.904,223.482 418.238,224.149 415.5,224.5C 413.052,223.527 410.385,223.194 407.5,223.5C 405.983,223.489 404.816,222.823 404,221.5C 403.685,218.628 403.185,215.795 402.5,213C 403.367,209.895 403.701,206.728 403.5,203.5C 404.873,203.657 406.207,203.49 407.5,203C 403.806,202.199 400.306,201.032 397,199.5C 396.104,196.975 396.604,194.808 398.5,193C 404.195,192.374 409.862,192.541 415.5,193.5 Z"/></g>
<g><path style="opacity:0.97" fill="#f1caae" d="M 302.5,217.5 C 308.112,214.358 313.779,211.191 319.5,208C 320.833,207.333 322.167,207.333 323.5,208C 325.478,210.497 325.978,213.331 325,216.5C 318.922,221.122 312.755,225.622 306.5,230C 313.804,229.753 321.137,229.586 328.5,229.5C 330.411,229.574 331.578,230.574 332,232.5C 332.667,234.5 332.667,236.5 332,238.5C 328.35,240.046 324.516,240.713 320.5,240.5C 315.752,240.275 311.085,240.775 306.5,242C 310.531,243.173 314.531,244.34 318.5,245.5C 326.1,245.733 328.1,249.067 324.5,255.5C 319.544,256.494 314.544,256.827 309.5,256.5C 302.465,255.11 295.465,255.776 288.5,258.5C 284.168,250.531 278.835,243.197 272.5,236.5C 274.011,225.774 276.344,215.274 279.5,205C 282.669,204.022 285.503,204.522 288,206.5C 289.026,211.785 289.693,217.118 290,222.5C 290.308,223.308 290.808,223.975 291.5,224.5C 295.364,222.406 299.031,220.072 302.5,217.5 Z"/></g>
<g><path style="opacity:0.957" fill="#efc1a8" d="M 539.5,205.5 C 533.819,224.197 524.986,241.197 513,256.5C 509.532,250.333 508.032,243.667 508.5,236.5C 509.239,236.631 509.906,236.464 510.5,236C 520.529,226.046 530.196,215.879 539.5,205.5 Z"/></g>
<g><path style="opacity:0.915" fill="#e1e1e1" d="M 407.5,223.5 C 410.385,223.194 413.052,223.527 415.5,224.5C 415.338,226.527 415.505,228.527 416,230.5C 420.616,233.41 422.783,237.41 422.5,242.5C 415.405,243.346 408.405,242.679 401.5,240.5C 399.661,237.865 396.994,236.532 393.5,236.5C 393.5,235.833 393.5,235.167 393.5,234.5C 397.21,231.467 401.21,228.8 405.5,226.5C 406.425,225.643 407.092,224.643 407.5,223.5 Z"/></g>
<g><path style="opacity:0.937" fill="#53231a" d="M 383.5,236.5 C 386.833,236.5 390.167,236.5 393.5,236.5C 396.994,236.532 399.661,237.865 401.5,240.5C 401.054,244.573 398.72,246.573 394.5,246.5C 393.574,253.517 393.574,260.517 394.5,267.5C 398.833,269.667 403.167,271.833 407.5,274C 409.79,275.777 411.457,277.944 412.5,280.5C 395.517,281.376 378.517,281.709 361.5,281.5C 361.84,279.321 362.84,277.488 364.5,276C 369.917,273.21 375.084,270.043 380,266.5C 380.831,259.476 380.664,252.476 379.5,245.5C 375.603,244.201 374.269,241.701 375.5,238C 378.063,236.921 380.729,236.421 383.5,236.5 Z"/></g>
<g><path style="opacity:0.918" fill="#452e18" d="M 320.5,240.5 C 319.833,242.167 319.167,243.833 318.5,245.5C 314.531,244.34 310.531,243.173 306.5,242C 311.085,240.775 315.752,240.275 320.5,240.5 Z"/></g>
<g><path style="opacity:1" fill="#553617" d="M 154.5,242.5 C 157.076,247.555 159.076,252.888 160.5,258.5C 160.5,259.833 160.5,261.167 160.5,262.5C 158.574,272.613 158.074,282.947 159,293.5C 163.499,303.481 168.999,312.815 175.5,321.5C 160.628,309.805 146.462,297.138 133,283.5C 126.224,276.692 124.891,269.025 129,260.5C 137.12,253.867 145.62,247.867 154.5,242.5 Z"/></g>
<g><path style="opacity:0.942" fill="#3b2510" d="M 309.5,256.5 C 300.027,267.896 288.693,276.896 275.5,283.5C 275.167,283.5 274.833,283.5 274.5,283.5C 265.411,286.195 256.411,285.862 247.5,282.5C 260.255,275.957 273.255,269.624 286.5,263.5C 287.322,261.861 287.989,260.195 288.5,258.5C 295.465,255.776 302.465,255.11 309.5,256.5 Z"/></g>
<g><path style="opacity:0.933" fill="#3a240f" d="M 160.5,262.5 C 161.542,272.953 163.375,283.287 166,293.5C 172.286,305.787 180.786,316.287 191.5,325C 196.49,327.75 201.823,329.583 207.5,330.5C 208.6,331.558 209.934,332.392 211.5,333C 205.221,335.473 199.221,338.473 193.5,342C 190.332,342.032 187.999,340.532 186.5,337.5C 188.086,336.852 189.753,336.352 191.5,336C 185.347,332.011 180.014,327.178 175.5,321.5C 168.999,312.815 163.499,303.481 159,293.5C 158.074,282.947 158.574,272.613 160.5,262.5 Z"/></g>
<g><path style="opacity:0.985" fill="#49370e" d="M 653.5,270.5 C 657.078,273.311 659.411,276.978 660.5,281.5C 645.162,288.169 629.829,294.836 614.5,301.5C 614.747,298.061 614.414,294.728 613.5,291.5C 626.549,283.975 639.882,276.975 653.5,270.5 Z"/></g>
<g><path style="opacity:0.99" fill="#fefefe" d="M 467.5,279.5 C 473.167,280.833 478.833,280.833 484.5,279.5C 489.833,279.5 495.167,279.5 500.5,279.5C 505.772,280.4 511.105,280.733 516.5,280.5C 520.167,280.5 523.833,280.5 527.5,280.5C 527.569,293.607 526.569,306.607 524.5,319.5C 523.341,323.465 522.174,327.465 521,331.5C 519.951,333.384 518.451,334.718 516.5,335.5C 509.322,335.327 503.489,332.327 499,326.5C 496.772,334.788 492.606,341.955 486.5,348C 480.929,351.136 474.929,352.302 468.5,351.5C 464.794,351.075 461.461,349.741 458.5,347.5C 451.559,364.138 439.225,370.472 421.5,366.5C 409.724,362.556 402.224,354.556 399,342.5C 394.784,353.351 387.617,361.351 377.5,366.5C 362.422,369.716 352.588,364.049 348,349.5C 338.386,356.779 327.553,359.779 315.5,358.5C 309.378,356.369 305.711,352.035 304.5,345.5C 298.239,349.287 292.073,349.287 286,345.5C 282.828,337.479 280.828,329.145 280,320.5C 279.617,319.944 279.117,319.611 278.5,319.5C 276.513,307.576 275.179,295.576 274.5,283.5C 274.833,283.5 275.167,283.5 275.5,283.5C 304.147,282.353 332.813,281.687 361.5,281.5C 378.517,281.709 395.517,281.376 412.5,280.5C 430.838,280.354 449.171,280.021 467.5,279.5 Z"/></g>
<g><path style="opacity:0.991" fill="#000000" d="M 660.5,281.5 C 667.803,290.984 674.97,300.65 682,310.5C 689.577,324.114 689.91,337.78 683,351.5C 679.212,357.121 674.379,361.454 668.5,364.5C 639.351,366.269 610.351,369.435 581.5,374C 580.5,374.5 579.5,375 578.5,375.5C 577.336,381.472 577.17,387.472 578,393.5C 578.377,394.942 579.21,395.942 580.5,396.5C 580.5,397.167 580.5,397.833 580.5,398.5C 576.777,399.297 573.11,400.297 569.5,401.5C 566.454,402.184 563.454,402.684 560.5,403C 554.703,397.188 549.036,391.354 543.5,385.5C 537.213,377.374 530.713,369.374 524,361.5C 521.519,356.185 519.353,350.852 517.5,345.5C 517.167,342.167 516.833,338.833 516.5,335.5C 518.451,334.718 519.951,333.384 521,331.5C 522.174,327.465 523.341,323.465 524.5,319.5C 543.17,319.667 561.836,319.5 580.5,319C 588.945,318.882 597.278,317.882 605.5,316C 609.601,311.965 612.268,307.131 613.5,301.5C 613.833,301.5 614.167,301.5 614.5,301.5C 629.829,294.836 645.162,288.169 660.5,281.5 Z"/></g>
<g><path style="opacity:0.837" fill="#deb819" d="M 611.5,291.5 C 612.167,291.5 612.833,291.5 613.5,291.5C 614.414,294.728 614.747,298.061 614.5,301.5C 614.167,301.5 613.833,301.5 613.5,301.5C 611.825,298.493 611.159,295.16 611.5,291.5 Z"/></g>
<g><path style="opacity:0.946" fill="#551b1a" d="M 705.5,304.5 C 709.377,309.059 714.044,312.393 719.5,314.5C 718.227,330.56 716.561,346.56 714.5,362.5C 709.327,363.293 704.327,363.293 699.5,362.5C 701.677,343.228 703.677,323.895 705.5,304.5 Z"/></g>
<g><path style="opacity:1" fill="#553617" d="M 166.5,347.5 C 166.5,348.167 166.167,348.5 165.5,348.5C 157.354,351.455 149.021,353.288 140.5,354C 133.959,347.128 127.793,339.961 122,332.5C 119.9,329.835 120.4,327.668 123.5,326C 130.663,322.253 137.663,318.253 144.5,314C 147.622,312.096 150.955,311.429 154.5,312C 159.31,318.444 164.476,324.611 170,330.5C 170.667,332.167 170.667,333.833 170,335.5C 168.523,339.429 167.356,343.429 166.5,347.5 Z"/></g>
<g><path style="opacity:0.967" fill="#551b1a" d="M 78.5,313.5 C 80.915,330.487 83.2483,347.487 85.5,364.5C 85.3284,365.492 85.6618,366.158 86.5,366.5C 86.5,366.833 86.5,367.167 86.5,367.5C 86.5,368.5 86.5,369.5 86.5,370.5C 81.5,371.833 76.5,371.833 71.5,370.5C 69.3295,354.468 66.9961,338.468 64.5,322.5C 67.0163,322.245 69.3496,321.411 71.5,320C 73.7032,317.628 76.0365,315.461 78.5,313.5 Z"/></g>
<g><path style="opacity:0.976" fill="#313f51" d="M 278.5,319.5 C 279.117,319.611 279.617,319.944 280,320.5C 280.828,329.145 282.828,337.479 286,345.5C 292.073,349.287 298.239,349.287 304.5,345.5C 305.711,352.035 309.378,356.369 315.5,358.5C 311.531,366.445 307.198,374.112 302.5,381.5C 301.883,379.771 300.883,378.271 299.5,377C 291.107,373.707 282.773,370.54 274.5,367.5C 277.488,362.194 280.488,356.861 283.5,351.5C 269.94,353.261 256.274,355.594 242.5,358.5C 221.002,352.223 199.335,346.557 177.5,341.5C 180.088,339.408 183.088,338.075 186.5,337.5C 187.999,340.532 190.332,342.032 193.5,342C 199.221,338.473 205.221,335.473 211.5,333C 209.934,332.392 208.6,331.558 207.5,330.5C 231.049,326.075 254.716,322.408 278.5,319.5 Z"/></g>
<g><path style="opacity:0.987" fill="#efc1a8" d="M 516.5,335.5 C 516.833,338.833 517.167,342.167 517.5,345.5C 503.745,350.307 490.078,355.307 476.5,360.5C 473.833,357.5 471.167,354.5 468.5,351.5C 474.929,352.302 480.929,351.136 486.5,348C 492.606,341.955 496.772,334.788 499,326.5C 503.489,332.327 509.322,335.327 516.5,335.5 Z"/></g>
<g><path style="opacity:0.985" fill="#404e63" d="M 177.5,341.5 C 199.335,346.557 221.002,352.223 242.5,358.5C 252.807,362.413 263.474,365.413 274.5,367.5C 282.773,370.54 291.107,373.707 299.5,377C 300.883,378.271 301.883,379.771 302.5,381.5C 308.985,432.653 313.485,483.986 316,535.5C 314.67,536.582 313.17,537.249 311.5,537.5C 301.132,540.967 290.465,542.3 279.5,541.5C 276.888,540.629 274.221,539.963 271.5,539.5C 274.843,503.255 276.51,466.921 276.5,430.5C 276.579,420.371 275.579,410.371 273.5,400.5C 267.815,398.028 261.815,396.695 255.5,396.5C 240.246,393.249 224.913,390.249 209.5,387.5C 209.345,384.391 208.678,381.391 207.5,378.5C 205.885,377.846 204.218,377.346 202.5,377C 180.507,374.43 158.507,372.597 136.5,371.5C 145.879,363.453 155.545,355.786 165.5,348.5C 166.167,348.5 166.5,348.167 166.5,347.5C 170.15,345.528 173.816,343.528 177.5,341.5 Z"/></g>
<g><path style="opacity:0.964" fill="#541a19" d="M 421.5,366.5 C 419.503,373.154 417.503,379.82 415.5,386.5C 421.126,390.912 420.46,393.912 413.5,395.5C 408.14,425.35 407.14,455.35 410.5,485.5C 432.178,484.58 448.011,493.58 458,512.5C 461.582,524.971 462.416,537.638 460.5,550.5C 465.912,550.603 470.912,552.103 475.5,555C 480.892,564.37 478.058,569.204 467,569.5C 459.128,569.543 452.128,567.209 446,562.5C 445.309,553.633 443.642,544.966 441,536.5C 437.232,526.4 430.066,520.233 419.5,518C 405.551,515.189 391.551,514.855 377.5,517C 362.21,521.391 353.877,531.557 352.5,547.5C 346.823,548.406 341.157,549.406 335.5,550.5C 332.25,525.167 341.584,506.334 363.5,494C 371.646,490.765 379.813,487.932 388,485.5C 391.747,456.032 390.914,426.699 385.5,397.5C 383.303,395.556 381.303,393.39 379.5,391C 380.676,389.326 382.01,387.826 383.5,386.5C 381.497,379.82 379.497,373.154 377.5,366.5C 387.617,361.351 394.784,353.351 399,342.5C 402.224,354.556 409.724,362.556 421.5,366.5 Z"/></g>
<g><path style="opacity:0.971" fill="#fbd8c2" d="M 517.5,345.5 C 519.353,350.852 521.519,356.185 524,361.5C 530.713,369.374 537.213,377.374 543.5,385.5C 535.019,388.122 526.353,390.455 517.5,392.5C 513.144,393.674 508.811,395.007 504.5,396.5C 508.002,402.166 510.835,408.166 513,414.5C 522.617,453.018 535.617,490.351 552,526.5C 554.998,528.333 557.498,530.666 559.5,533.5C 559.201,536.642 557.534,538.809 554.5,540C 542.32,545.214 529.653,547.88 516.5,548C 515.464,546.224 515.464,544.391 516.5,542.5C 522.345,536.492 528.678,530.992 535.5,526C 529.972,511.441 523.472,497.274 516,483.5C 496.53,450.007 477.864,416.007 460,381.5C 458.266,377.983 457.599,374.316 458,370.5C 463.667,366.25 469.834,362.916 476.5,360.5C 490.078,355.307 503.745,350.307 517.5,345.5 Z"/></g>
<g><path style="opacity:0.986" fill="#fdefd4" d="M 704.5,398.5 C 696.326,397.408 687.992,397.408 679.5,398.5C 654.5,398.5 629.5,398.5 604.5,398.5C 596.665,397.616 588.665,396.95 580.5,396.5C 579.21,395.942 578.377,394.942 578,393.5C 577.17,387.472 577.336,381.472 578.5,375.5C 579.5,375 580.5,374.5 581.5,374C 610.351,369.435 639.351,366.269 668.5,364.5C 678.88,364.164 689.214,363.498 699.5,362.5C 704.327,363.293 709.327,363.293 714.5,362.5C 716.5,362.167 718.5,361.833 720.5,361.5C 720.61,373.516 720.277,385.516 719.5,397.5C 714.463,397.413 709.463,397.746 704.5,398.5 Z"/></g>
<g><path style="opacity:0.987" fill="#fef0d5" d="M 71.5,370.5 C 76.5,371.833 81.5,371.833 86.5,370.5C 86.8333,370.5 87.1667,370.5 87.5,370.5C 103.833,371.783 120.167,372.116 136.5,371.5C 158.507,372.597 180.507,374.43 202.5,377C 204.218,377.346 205.885,377.846 207.5,378.5C 208.678,381.391 209.345,384.391 209.5,387.5C 209.666,391.514 209.499,395.514 209,399.5C 208.329,400.252 207.496,400.586 206.5,400.5C 198.429,400.92 190.429,401.587 182.5,402.5C 157.867,404.194 133.2,405.194 108.5,405.5C 99.9832,405.174 91.6499,405.507 83.5,406.5C 78.0248,407.081 72.8582,406.414 68,404.5C 66.63,393.139 66.13,381.805 66.5,370.5C 68.1667,370.5 69.8333,370.5 71.5,370.5 Z"/></g>
<g><path style="opacity:0.959" fill="#edbfa7" d="M 543.5,385.5 C 549.036,391.354 554.703,397.188 560.5,403C 563.454,402.684 566.454,402.184 569.5,401.5C 572.143,406.132 575.143,410.465 578.5,414.5C 578.745,423.208 578.411,431.874 577.5,440.5C 557.187,424.85 537.187,408.85 517.5,392.5C 526.353,390.455 535.019,388.122 543.5,385.5 Z"/></g>
<g><path style="opacity:0.975" fill="#313f50" d="M 255.5,396.5 C 261.815,396.695 267.815,398.028 273.5,400.5C 275.579,410.371 276.579,420.371 276.5,430.5C 262.095,454.967 248.429,479.967 235.5,505.5C 233.64,504.74 231.973,503.74 230.5,502.5C 226.049,498.39 221.049,495.056 215.5,492.5C 214.393,481.916 213.726,471.249 213.5,460.5C 228.492,439.859 242.492,418.526 255.5,396.5 Z"/></g>
<g><path style="opacity:0.969" fill="#541a19" d="M 580.5,396.5 C 588.665,396.95 596.665,397.616 604.5,398.5C 602.581,412.106 601.248,425.772 600.5,439.5C 599.719,444.84 599.052,450.34 598.5,456C 598.648,457.256 598.982,458.423 599.5,459.5C 596.545,498.322 599.545,536.822 608.5,575C 606.91,578.981 603.91,581.314 599.5,582C 594.713,582.879 590.047,582.545 585.5,581C 582.691,579.412 582.025,577.245 583.5,574.5C 582.045,572.78 581.212,570.78 581,568.5C 579.006,554.229 577.672,539.896 577,525.5C 576.227,497.152 576.393,468.819 577.5,440.5C 578.411,431.874 578.745,423.208 578.5,414.5C 579.167,409.167 579.833,403.833 580.5,398.5C 580.5,397.833 580.5,397.167 580.5,396.5 Z"/></g>
<g><path style="opacity:0.961" fill="#541a19" d="M 704.5,398.5 C 718.493,445.966 728.327,494.299 734,543.5C 735.348,553.596 735.681,563.596 735,573.5C 731.156,577.338 726.489,579.004 721,578.5C 712.292,579.291 708.459,575.291 709.5,566.5C 710.185,526.121 705.018,486.455 694,447.5C 689.318,431.102 684.485,414.769 679.5,398.5C 687.992,397.408 696.326,397.408 704.5,398.5 Z"/></g>
<g><path style="opacity:0.974" fill="#541a19" d="M 206.5,400.5 C 209.56,420.372 211.893,440.372 213.5,460.5C 213.726,471.249 214.393,481.916 215.5,492.5C 215.818,515.87 215.151,539.204 213.5,562.5C 213.979,566.434 213.312,570.101 211.5,573.5C 212.544,577.542 210.878,580.042 206.5,581C 202.5,581.667 198.5,581.667 194.5,581C 188.15,579.691 185.483,576.025 186.5,570C 189.518,559.033 191.518,547.866 192.5,536.5C 193.293,523.85 193.626,511.183 193.5,498.5C 192.133,466.231 188.466,434.231 182.5,402.5C 190.429,401.587 198.429,400.92 206.5,400.5 Z"/></g>
<g><path style="opacity:0.96" fill="#541a19" d="M 108.5,405.5 C 95.7848,445.576 87.6181,486.576 84,528.5C 83.3909,543.682 83.5575,558.682 84.5,573.5C 84.4712,575.029 83.8045,576.196 82.5,577C 74.3948,580.882 66.8948,580.049 60,574.5C 59.2571,572.559 59.4238,570.726 60.5,569C 59.2289,566.446 58.5623,563.613 58.5,560.5C 61.4299,508.255 69.7632,456.922 83.5,406.5C 91.6499,405.507 99.9832,405.174 108.5,405.5 Z"/></g>
<g><path style="opacity:0.962" fill="#ecbea5" d="M 600.5,439.5 C 604.998,443.83 609.665,447.997 614.5,452C 617.128,453.61 619.795,453.777 622.5,452.5C 625.37,455.583 627.203,459.25 628,463.5C 630.479,473.765 630.979,484.098 629.5,494.5C 627.833,495.666 626.166,495.666 624.5,494.5C 622.164,492.996 620.331,490.996 619,488.5C 614.413,480.996 610.08,473.329 606,465.5C 603.963,463.294 601.797,461.294 599.5,459.5C 598.982,458.423 598.648,457.256 598.5,456C 599.052,450.34 599.719,444.84 600.5,439.5 Z"/></g>
<g><path style="opacity:0.955" fill="#590d06" d="M 622.5,452.5 C 635.888,452.63 649.221,453.296 662.5,454.5C 664.103,457.636 664.436,460.803 663.5,464C 655.606,465.82 647.606,466.653 639.5,466.5C 639.502,470.511 640.668,474.178 643,477.5C 649.275,482.953 655.275,488.62 661,494.5C 663.179,505.569 662.845,516.569 660,527.5C 655.559,530.331 650.726,531.164 645.5,530C 643.06,523.352 640.226,516.852 637,510.5C 632.213,505.559 628.046,500.225 624.5,494.5C 626.166,495.666 627.833,495.666 629.5,494.5C 630.979,484.098 630.479,473.765 628,463.5C 627.203,459.25 625.37,455.583 622.5,452.5 Z"/></g>
<g><path style="opacity:0.962" fill="#6c4621" d="M 215.5,492.5 C 221.049,495.056 226.049,498.39 230.5,502.5C 226.543,510.868 223.71,519.535 222,528.5C 226.446,534.106 231.946,538.439 238.5,541.5C 245.777,539.17 253.11,538.67 260.5,540C 262.727,545.341 263.06,550.841 261.5,556.5C 261.182,557.647 260.516,558.481 259.5,559C 244.35,563.708 229.017,564.874 213.5,562.5C 215.151,539.204 215.818,515.87 215.5,492.5 Z"/></g>
<g><path style="opacity:0.909" fill="#6c4620" d="M 193.5,498.5 C 193.626,511.183 193.293,523.85 192.5,536.5C 186.26,528.615 183.093,519.615 183,509.5C 186.732,505.938 190.232,502.271 193.5,498.5 Z"/></g>
<g><path style="opacity:0.956" fill="#661005" d="M 559.5,533.5 C 562.754,536.363 564.087,540.03 563.5,544.5C 562.897,555.544 561.897,566.544 560.5,577.5C 560.182,578.647 559.516,579.481 558.5,580C 555.773,580.818 553.106,580.652 550.5,579.5C 548.906,571.598 548.24,563.598 548.5,555.5C 544.56,555.758 540.893,556.924 537.5,559C 532.133,564.032 527.133,569.365 522.5,575C 521.167,575.667 519.833,576.333 518.5,577C 508.025,578.096 497.692,577.429 487.5,575C 486.299,574.097 485.465,572.931 485,571.5C 484.333,567.833 484.333,564.167 485,560.5C 491.105,558.016 497.271,555.516 503.5,553C 507.864,549.492 512.197,545.992 516.5,542.5C 515.464,544.391 515.464,546.224 516.5,548C 529.653,547.88 542.32,545.214 554.5,540C 557.534,538.809 559.201,536.642 559.5,533.5 Z"/></g>
<g><path style="opacity:0.972" fill="#6c4621" d="M 311.5,537.5 C 314.214,542.416 317.548,546.916 321.5,551C 326.194,551.564 330.86,551.397 335.5,550.5C 341.157,549.406 346.823,548.406 352.5,547.5C 356.49,546.616 359.323,547.949 361,551.5C 364.555,558.053 366.055,565.053 365.5,572.5C 354.231,574.656 342.897,576.489 331.5,578C 323.833,578.667 316.167,578.667 308.5,578C 306.369,576.353 304.369,576.686 302.5,579C 294.41,581.3 286.244,581.8 278,580.5C 277.055,580.095 276.388,579.428 276,578.5C 275.334,565.997 276.5,553.664 279.5,541.5C 290.465,542.3 301.132,540.967 311.5,537.5 Z"/></g>
</svg>
